<mxfile host="app.diagrams.net" modified="2021-11-29T07:40:51.544Z" agent="5.0 (Windows NT 10.0; Win64; x64) AppleWebKit/537.36 (KHTML, like Gecko) Chrome/96.0.4664.45 Safari/537.36" etag="0Ahh_7AYdjLe7kcO1pUT" version="15.8.6" type="github">
  <diagram name="Page-1" id="c4acf3e9-155e-7222-9cf6-157b1a14988f">
    <mxGraphModel dx="782" dy="436" grid="1" gridSize="10" guides="1" tooltips="1" connect="1" arrows="1" fold="1" page="1" pageScale="1" pageWidth="850" pageHeight="1100" math="0" shadow="0">
      <root>
        <mxCell id="0" />
        <mxCell id="1" parent="0" />
        <mxCell id="AVpuDJnW2xRjr6oXpXxj-5" value="Module: structure" style="shape=module;align=left;spacingLeft=20;align=center;verticalAlign=top;jettyWidth=51;jettyHeight=16;" parent="1" vertex="1">
          <mxGeometry x="250" y="40" width="590" height="470" as="geometry" />
        </mxCell>
        <mxCell id="4dG-tuDiHKRdlWogkMYx-1" value="Collaborator(Person)" style="swimlane;fontStyle=1;align=center;verticalAlign=top;childLayout=stackLayout;horizontal=1;startSize=26;horizontalStack=0;resizeParent=1;resizeParentMax=0;resizeLast=0;collapsible=1;marginBottom=0;fillColor=#21C0A5;strokeColor=#006658;fontColor=#5C5C5C;" parent="1" vertex="1">
          <mxGeometry x="320" y="240" width="180" height="240" as="geometry" />
        </mxCell>
        <mxCell id="4dG-tuDiHKRdlWogkMYx-2" value="+ collaborators: list(Collaborator)&#xa;+ department: Department&#xa;+ decisions: list(Decision)&#xa;+status: str&#xa;+ mamager: Collaborator&#xa;+ title: str&#xa;+ position_in_department: str&#xa;&#xa;&#xa;" style="text;strokeColor=none;fillColor=none;align=left;verticalAlign=top;spacingLeft=4;spacingRight=4;overflow=hidden;rotatable=0;points=[[0,0.5],[1,0.5]];portConstraint=eastwest;fontColor=#5C5C5C;" parent="4dG-tuDiHKRdlWogkMYx-1" vertex="1">
          <mxGeometry y="26" width="180" height="114" as="geometry" />
        </mxCell>
        <mxCell id="4dG-tuDiHKRdlWogkMYx-3" value="" style="line;strokeWidth=1;fillColor=none;align=left;verticalAlign=middle;spacingTop=-1;spacingLeft=3;spacingRight=3;rotatable=0;labelPosition=right;points=[];portConstraint=eastwest;strokeColor=#006658;fontColor=#5C5C5C;" parent="4dG-tuDiHKRdlWogkMYx-1" vertex="1">
          <mxGeometry y="140" width="180" height="8" as="geometry" />
        </mxCell>
        <mxCell id="4dG-tuDiHKRdlWogkMYx-4" value="+ set_manager(type): type&#xa;+ edit_collaborator(type): type&#xa;+ request_decision(type): type&#xa;+ edit_dacision(type): type" style="text;strokeColor=none;fillColor=none;align=left;verticalAlign=top;spacingLeft=4;spacingRight=4;overflow=hidden;rotatable=0;points=[[0,0.5],[1,0.5]];portConstraint=eastwest;fontColor=#5C5C5C;" parent="4dG-tuDiHKRdlWogkMYx-1" vertex="1">
          <mxGeometry y="148" width="180" height="92" as="geometry" />
        </mxCell>
        <mxCell id="4dG-tuDiHKRdlWogkMYx-6" value="Department" style="swimlane;fontStyle=1;align=center;verticalAlign=top;childLayout=stackLayout;horizontal=1;startSize=26;horizontalStack=0;resizeParent=1;resizeParentMax=0;resizeLast=0;collapsible=1;marginBottom=0;fillColor=#21C0A5;strokeColor=#006658;fontColor=#5C5C5C;" parent="1" vertex="1">
          <mxGeometry x="560" y="200" width="275" height="268" as="geometry" />
        </mxCell>
        <mxCell id="4dG-tuDiHKRdlWogkMYx-7" value="+ departments: list(Department)&#xa;+ decisions: list(Decision)&#xa;+ name: str&#xa;+ department_collaborators: set(Collaborator)&#xa;+ positions: {&quot;head&quot;, &quot;deputy&quot; ...}&#xa;&#xa;&#xa;" style="text;strokeColor=none;fillColor=none;align=left;verticalAlign=top;spacingLeft=4;spacingRight=4;overflow=hidden;rotatable=0;points=[[0,0.5],[1,0.5]];portConstraint=eastwest;fontColor=#5C5C5C;" parent="4dG-tuDiHKRdlWogkMYx-6" vertex="1">
          <mxGeometry y="26" width="275" height="114" as="geometry" />
        </mxCell>
        <mxCell id="4dG-tuDiHKRdlWogkMYx-8" value="" style="line;strokeWidth=1;fillColor=none;align=left;verticalAlign=middle;spacingTop=-1;spacingLeft=3;spacingRight=3;rotatable=0;labelPosition=right;points=[];portConstraint=eastwest;strokeColor=#006658;fontColor=#5C5C5C;" parent="4dG-tuDiHKRdlWogkMYx-6" vertex="1">
          <mxGeometry y="140" width="275" height="8" as="geometry" />
        </mxCell>
        <mxCell id="4dG-tuDiHKRdlWogkMYx-9" value="+ @classmethod: create_basic_structure_of_departments&#xa;+ @classmethod: check departments structure- Sets levels from top&#xa;+@classmethod: filter by name&#xa;+ @classmethod: filter by level&#xa;+ add_collaborator(self, name, surname): type&#xa;+ add_position():&#xa;+ assign_position_to_collaborator(Collaborator, position)" style="text;strokeColor=none;fillColor=none;align=left;verticalAlign=top;spacingLeft=4;spacingRight=4;overflow=hidden;rotatable=0;points=[[0,0.5],[1,0.5]];portConstraint=eastwest;fontColor=#5C5C5C;" parent="4dG-tuDiHKRdlWogkMYx-6" vertex="1">
          <mxGeometry y="148" width="275" height="120" as="geometry" />
        </mxCell>
        <mxCell id="4dG-tuDiHKRdlWogkMYx-12" value="Person" style="swimlane;fontStyle=1;align=center;verticalAlign=top;childLayout=stackLayout;horizontal=1;startSize=26;horizontalStack=0;resizeParent=1;resizeParentMax=0;resizeLast=0;collapsible=1;marginBottom=0;fillColor=#21C0A5;strokeColor=#006658;fontColor=#5C5C5C;" parent="1" vertex="1">
          <mxGeometry x="330" y="69" width="160" height="144" as="geometry" />
        </mxCell>
        <mxCell id="4dG-tuDiHKRdlWogkMYx-13" value="+ name: str&#xa;+ surname: str&#xa;+ adress: str&#xa;+ email: str&#xa;+ users: list(User)&#xa;" style="text;strokeColor=none;fillColor=none;align=left;verticalAlign=top;spacingLeft=4;spacingRight=4;overflow=hidden;rotatable=0;points=[[0,0.5],[1,0.5]];portConstraint=eastwest;fontColor=#5C5C5C;" parent="4dG-tuDiHKRdlWogkMYx-12" vertex="1">
          <mxGeometry y="26" width="160" height="84" as="geometry" />
        </mxCell>
        <mxCell id="4dG-tuDiHKRdlWogkMYx-14" value="" style="line;strokeWidth=1;fillColor=none;align=left;verticalAlign=middle;spacingTop=-1;spacingLeft=3;spacingRight=3;rotatable=0;labelPosition=right;points=[];portConstraint=eastwest;strokeColor=#006658;fontColor=#5C5C5C;" parent="4dG-tuDiHKRdlWogkMYx-12" vertex="1">
          <mxGeometry y="110" width="160" height="8" as="geometry" />
        </mxCell>
        <mxCell id="4dG-tuDiHKRdlWogkMYx-15" value="+ create_user(): User" style="text;strokeColor=none;fillColor=none;align=left;verticalAlign=top;spacingLeft=4;spacingRight=4;overflow=hidden;rotatable=0;points=[[0,0.5],[1,0.5]];portConstraint=eastwest;fontColor=#5C5C5C;" parent="4dG-tuDiHKRdlWogkMYx-12" vertex="1">
          <mxGeometry y="118" width="160" height="26" as="geometry" />
        </mxCell>
        <mxCell id="4dG-tuDiHKRdlWogkMYx-16" value="" style="endArrow=open;endFill=1;endSize=12;html=1;rounded=0;entryX=0.499;entryY=1.078;entryDx=0;entryDy=0;entryPerimeter=0;exitX=0.5;exitY=0;exitDx=0;exitDy=0;strokeColor=#006658;fontColor=#5C5C5C;" parent="1" source="4dG-tuDiHKRdlWogkMYx-1" target="4dG-tuDiHKRdlWogkMYx-15" edge="1">
          <mxGeometry width="160" relative="1" as="geometry">
            <mxPoint x="310" y="230" as="sourcePoint" />
            <mxPoint x="470" y="270" as="targetPoint" />
          </mxGeometry>
        </mxCell>
        <mxCell id="4dG-tuDiHKRdlWogkMYx-17" value="Decision" style="swimlane;fontStyle=1;align=center;verticalAlign=top;childLayout=stackLayout;horizontal=1;startSize=26;horizontalStack=0;resizeParent=1;resizeParentMax=0;resizeLast=0;collapsible=1;marginBottom=0;fillColor=#21C0A5;strokeColor=#006658;fontColor=#5C5C5C;" parent="1" vertex="1">
          <mxGeometry x="440" y="560" width="160" height="170" as="geometry" />
        </mxCell>
        <mxCell id="4dG-tuDiHKRdlWogkMYx-18" value="+ collaborator: Collaborator&#xa;+ responsible: Collaborator&#xa;+ urgency: int&#xa;+ importance: str&#xa;+ beginning: datetime.now" style="text;strokeColor=none;fillColor=none;align=left;verticalAlign=top;spacingLeft=4;spacingRight=4;overflow=hidden;rotatable=0;points=[[0,0.5],[1,0.5]];portConstraint=eastwest;fontColor=#5C5C5C;" parent="4dG-tuDiHKRdlWogkMYx-17" vertex="1">
          <mxGeometry y="26" width="160" height="94" as="geometry" />
        </mxCell>
        <mxCell id="4dG-tuDiHKRdlWogkMYx-19" value="" style="line;strokeWidth=1;fillColor=none;align=left;verticalAlign=middle;spacingTop=-1;spacingLeft=3;spacingRight=3;rotatable=0;labelPosition=right;points=[];portConstraint=eastwest;strokeColor=#006658;fontColor=#5C5C5C;" parent="4dG-tuDiHKRdlWogkMYx-17" vertex="1">
          <mxGeometry y="120" width="160" height="8" as="geometry" />
        </mxCell>
        <mxCell id="4dG-tuDiHKRdlWogkMYx-20" value="+ grow_decision(type): type&#xa;+ color_decision(tbd)" style="text;strokeColor=none;fillColor=none;align=left;verticalAlign=top;spacingLeft=4;spacingRight=4;overflow=hidden;rotatable=0;points=[[0,0.5],[1,0.5]];portConstraint=eastwest;fontColor=#5C5C5C;" parent="4dG-tuDiHKRdlWogkMYx-17" vertex="1">
          <mxGeometry y="128" width="160" height="42" as="geometry" />
        </mxCell>
        <mxCell id="4dG-tuDiHKRdlWogkMYx-21" value="Relation" style="endArrow=open;html=1;endSize=12;startArrow=diamondThin;startSize=14;startFill=0;edgeStyle=orthogonalEdgeStyle;rounded=0;exitX=0.995;exitY=0.58;exitDx=0;exitDy=0;exitPerimeter=0;strokeColor=#006658;fontColor=#5C5C5C;" parent="1" source="4dG-tuDiHKRdlWogkMYx-2" target="4dG-tuDiHKRdlWogkMYx-7" edge="1">
          <mxGeometry relative="1" as="geometry">
            <mxPoint x="440" y="313" as="sourcePoint" />
            <mxPoint x="470" y="390" as="targetPoint" />
          </mxGeometry>
        </mxCell>
        <mxCell id="4dG-tuDiHKRdlWogkMYx-22" value="0..n" style="edgeLabel;resizable=0;html=1;align=left;verticalAlign=top;fontColor=#5C5C5C;" parent="4dG-tuDiHKRdlWogkMYx-21" connectable="0" vertex="1">
          <mxGeometry x="-1" relative="1" as="geometry" />
        </mxCell>
        <mxCell id="4dG-tuDiHKRdlWogkMYx-23" value="1" style="edgeLabel;resizable=0;html=1;align=right;verticalAlign=top;fontColor=#5C5C5C;" parent="4dG-tuDiHKRdlWogkMYx-21" connectable="0" vertex="1">
          <mxGeometry x="1" relative="1" as="geometry" />
        </mxCell>
        <mxCell id="4dG-tuDiHKRdlWogkMYx-30" value="Relation" style="endArrow=open;html=1;endSize=12;startArrow=diamondThin;startSize=14;startFill=0;edgeStyle=orthogonalEdgeStyle;rounded=0;exitX=0.5;exitY=0;exitDx=0;exitDy=0;entryX=1;entryY=0.5;entryDx=0;entryDy=0;strokeColor=#006658;fontColor=#5C5C5C;" parent="1" source="4dG-tuDiHKRdlWogkMYx-17" target="4dG-tuDiHKRdlWogkMYx-4" edge="1">
          <mxGeometry relative="1" as="geometry">
            <mxPoint x="160" y="540" as="sourcePoint" />
            <mxPoint x="315" y="490" as="targetPoint" />
          </mxGeometry>
        </mxCell>
        <mxCell id="4dG-tuDiHKRdlWogkMYx-31" value="0..n" style="edgeLabel;resizable=0;html=1;align=left;verticalAlign=top;fontColor=#5C5C5C;" parent="4dG-tuDiHKRdlWogkMYx-30" connectable="0" vertex="1">
          <mxGeometry x="-1" relative="1" as="geometry" />
        </mxCell>
        <mxCell id="4dG-tuDiHKRdlWogkMYx-32" value="1" style="edgeLabel;resizable=0;html=1;align=right;verticalAlign=top;fontColor=#5C5C5C;" parent="4dG-tuDiHKRdlWogkMYx-30" connectable="0" vertex="1">
          <mxGeometry x="1" relative="1" as="geometry" />
        </mxCell>
        <mxCell id="4dG-tuDiHKRdlWogkMYx-33" value="User" style="swimlane;fontStyle=1;align=center;verticalAlign=top;childLayout=stackLayout;horizontal=1;startSize=26;horizontalStack=0;resizeParent=1;resizeParentMax=0;resizeLast=0;collapsible=1;marginBottom=0;fillColor=#21C0A5;strokeColor=#006658;fontColor=#5C5C5C;" parent="1" vertex="1">
          <mxGeometry x="30" y="120" width="160" height="120" as="geometry" />
        </mxCell>
        <mxCell id="4dG-tuDiHKRdlWogkMYx-34" value="+ password: str&#xa;+ user name: str" style="text;strokeColor=none;fillColor=none;align=left;verticalAlign=top;spacingLeft=4;spacingRight=4;overflow=hidden;rotatable=0;points=[[0,0.5],[1,0.5]];portConstraint=eastwest;fontColor=#5C5C5C;" parent="4dG-tuDiHKRdlWogkMYx-33" vertex="1">
          <mxGeometry y="26" width="160" height="54" as="geometry" />
        </mxCell>
        <mxCell id="4dG-tuDiHKRdlWogkMYx-35" value="" style="line;strokeWidth=1;fillColor=none;align=left;verticalAlign=middle;spacingTop=-1;spacingLeft=3;spacingRight=3;rotatable=0;labelPosition=right;points=[];portConstraint=eastwest;strokeColor=#006658;fontColor=#5C5C5C;" parent="4dG-tuDiHKRdlWogkMYx-33" vertex="1">
          <mxGeometry y="80" width="160" height="8" as="geometry" />
        </mxCell>
        <mxCell id="4dG-tuDiHKRdlWogkMYx-36" value="+ crypt_password(type): type" style="text;strokeColor=none;fillColor=none;align=left;verticalAlign=top;spacingLeft=4;spacingRight=4;overflow=hidden;rotatable=0;points=[[0,0.5],[1,0.5]];portConstraint=eastwest;fontColor=#5C5C5C;" parent="4dG-tuDiHKRdlWogkMYx-33" vertex="1">
          <mxGeometry y="88" width="160" height="32" as="geometry" />
        </mxCell>
        <mxCell id="4dG-tuDiHKRdlWogkMYx-37" value="1" style="endArrow=open;html=1;endSize=12;startArrow=diamondThin;startSize=14;startFill=1;edgeStyle=orthogonalEdgeStyle;align=left;verticalAlign=bottom;rounded=0;entryX=0;entryY=0.5;entryDx=0;entryDy=0;exitX=1;exitY=0.5;exitDx=0;exitDy=0;strokeColor=#006658;fontColor=#5C5C5C;" parent="1" source="4dG-tuDiHKRdlWogkMYx-34" target="4dG-tuDiHKRdlWogkMYx-13" edge="1">
          <mxGeometry x="-1" y="3" relative="1" as="geometry">
            <mxPoint x="40" y="184" as="sourcePoint" />
            <mxPoint x="200" y="184" as="targetPoint" />
          </mxGeometry>
        </mxCell>
      </root>
    </mxGraphModel>
  </diagram>
</mxfile>
